<svg id="Capa_1" enable-background="new 0 0 512 512" height="512" viewBox="0 0 512 512" width="512" xmlns="http://www.w3.org/2000/svg" xmlns:xlink="http://www.w3.org/1999/xlink"><linearGradient id="SVGID_1_" gradientUnits="userSpaceOnUse" x1="256" x2="256" y1="512" y2="0"><stop offset="0" stop-color="#5558ff"/><stop offset="1" stop-color="#00c0ff"/></linearGradient><g><g><path d="m296.71 64.878c2.684-5.76 5.29-12.114 5.29-18.878 0-24.814-21.186-46-46-46s-46 21.186-46 46c0 6.764 2.606 13.118 5.29 18.878-104.678 19.234-185.29 110.966-185.29 221.122 0 124.072 101.928 226 226 226s226-101.928 226-226c0-110.156-80.612-201.888-185.29-221.122zm-40.71-33.878c8.276 0 15 6.724 15 15s-6.724 15-15 15-15-6.724-15-15 6.724-15 15-15zm0 450c-107.52 0-195-87.48-195-195s87.48-195 195-195 195 87.48 195 195-87.48 195-195 195zm0-360c-90.981 0-165 74.019-165 165s74.019 165 165 165 165-74.019 165-165-74.019-165-165-165zm15 298.484v-13.484c0-8.291-6.709-15-15-15s-15 6.709-15 15v13.484c-62.325-7.011-111.473-56.159-118.484-118.484h13.484c8.291 0 15-6.709 15-15s-6.709-15-15-15h-13.484c7.011-62.325 56.158-111.473 118.484-118.484v13.484c0 8.291 6.709 15 15 15s15-6.709 15-15v-13.484c62.325 7.011 111.473 56.158 118.484 118.484h-13.484c-8.291 0-15 6.709-15 15s6.709 15 15 15h13.484c-7.011 62.325-56.159 111.473-118.484 118.484zm19.629-161.404c-1.45-2.9-3.809-5.259-6.709-6.709l-84.844-42.422c-5.801-2.9-12.744-1.802-17.314 2.813-4.57 4.57-5.698 11.543-2.813 17.314l42.422 84.844c1.45 2.9 3.809 5.259 6.709 6.709l84.844 42.422c5.758 2.879 12.736 1.766 17.314-2.813 4.57-4.57 5.698-11.543 2.813-17.314zm-44.663 37.954-20.054-40.122 40.122 20.054 20.054 40.122z" fill="url(#SVGID_1_)"/></g></g></svg>